<?xml version="1.0" encoding="iso-8859-1"?>
<!-- Uploaded to: SVG Repo, www.svgrepo.com, Generator: SVG Repo Mixer Tools -->
<!DOCTYPE svg PUBLIC "-//W3C//DTD SVG 1.1//EN" "http://www.w3.org/Graphics/SVG/1.1/DTD/svg11.dtd">
<svg fill="#000000" version="1.1" id="Capa_1" xmlns="http://www.w3.org/2000/svg" xmlns:xlink="http://www.w3.org/1999/xlink" 
	 width="800px" height="800px" viewBox="0 0 476.294 476.294"
	 xml:space="preserve">
<g>
	<g>
		<path d="M7.075,285.161c0,0,10.315,7.357,4.916,10.792c-5.4,3.426-4.907,8.335-4.907,8.335l27.523-0.697
			c-2.204-5.054-3.477-10.604-3.477-16.467c0-22.733,18.486-41.216,41.214-41.216c22.726,0,41.214,18.482,41.214,41.216
			c0,5.366-1.108,10.479-2.983,15.185c51.411-0.289,151.417-0.865,216.028-1.295c-1.555-4.363-2.561-8.992-2.561-13.885
			c0-22.991,18.707-41.706,41.697-41.706c22.998,0,41.705,18.715,41.705,41.706c0,4.111-0.789,8.015-1.899,11.777
			c25.015-2.713,62.247-7.851,62.247-7.851l-5.887-5.559l10.804-8.84c11.125-10.792-7.201-19.625-7.201-19.625
			c6.54-18.646-4.252-31.402-4.252-31.402c7.858-4.584-0.324-9.161-0.324-9.161l7.851-10.143l-30.421-8.179
			c-18.643-1.633-36.307,10.472-36.307,10.472s-61.246-36.033-74.37-37.205c1.347-1.012,2.721-1.944,4.031-3.044
			c7.791-6.494-3.382-17.536-11.101-11.101c-7.614,6.352-16.446,10.975-25.636,14.577c-37.81,1.07-95.57,3.723-105.21,8.315
			c-13.737,6.538-57.897,38.922-57.897,38.922C29.167,225.953,6.777,247.872,6.777,247.872l3.542,17.011
			C-10.826,274.693,7.075,285.161,7.075,285.161z"/>
		<path d="M72.344,253.759c-18.426,0-33.364,14.936-33.364,33.365c0,5.932,1.679,11.422,4.388,16.242
			c5.717,10.175,16.479,17.12,28.976,17.12c12.906,0,23.977-7.406,29.515-18.13c2.372-4.584,3.849-9.714,3.849-15.232
			C105.708,268.694,90.771,253.759,72.344,253.759z"/>
		<path d="M365.748,253.27c-18.698,0-33.847,15.164-33.847,33.854c0,4.938,1.11,9.599,3.014,13.83
			c5.298,11.782,17.079,20.017,30.833,20.017c14.23,0,26.357-8.796,31.362-21.223c1.579-3.907,2.492-8.155,2.492-12.624
			C399.611,268.426,384.447,253.27,365.748,253.27z"/>
	</g>
</g>
</svg>